<svg version="1.1" viewBox="0.0 0.0 960.0 540.0" fill="none" stroke="none" stroke-linecap="square" stroke-miterlimit="10" xmlns:xlink="http://www.w3.org/1999/xlink" xmlns="http://www.w3.org/2000/svg"><clipPath id="g14981c2fed5_0_0.0"><path d="m0 0l960.0 0l0 540.0l-960.0 0l0 -540.0z" clip-rule="nonzero"/></clipPath><g clip-path="url(#g14981c2fed5_0_0.0)"><path fill="#000000" fill-opacity="0.0" d="m0 0l960.0 0l0 540.0l-960.0 0z" fill-rule="evenodd"/><path fill="#e4e4e4" d="m581.2889 487.19327c-2.1141357 0 -3.4312134 -1.1249084 -3.951233 -3.24469c-0.6557617 -2.7981262 -1.0570679 -5.6301575 -1.9615479 -8.320862c-0.6500244 -1.8936768 -1.5205688 -2.69635 -2.848938 -2.69635c-0.6783447 0 -1.4754028 0.20913696 -2.4194336 0.5878906c-3.4934082 1.4188232 -5.2005005 4.5448 -7.195923 7.2694397c-1.3849487 1.865387 -2.7924805 2.8489685 -4.838745 2.8489685c-0.26568604 0 -0.5426636 -0.016937256 -0.83099365 -0.050872803c-2.6850586 -0.32785034 -4.397827 -1.8145142 -5.22876 -4.3582764c-0.36743164 -1.1644592 -0.8027344 -2.2893677 -1.3114624 -3.3803406c-1.0288086 -2.1028137 -1.7467041 -3.0751038 -2.7020264 -3.0751038c-0.80267334 0 -1.7636719 0.6783447 -3.2164307 1.9501953c-2.7302856 2.4306946 -4.618286 5.556671 -7.1620483 8.134338c-1.701477 1.7071228 -3.2163696 2.5606995 -4.7539673 2.5606995c-1.4414062 0 -2.9111328 -0.75183105 -4.5843506 -2.2667542c-1.8880005 -1.7467041 -3.6290894 -3.634735 -5.44928 -5.44928c-2.6171875 -2.617218 -4.0925903 -3.962555 -5.3983765 -3.962555c-1.4301147 0 -2.6567993 1.6166687 -4.9574585 4.9404907c-1.1249084 1.5997314 -1.9615173 3.4142761 -3.5216675 4.6861267c-0.72354126 0.5765991 -1.7184448 0.8761902 -2.707672 0.8761902c-1.0005493 0 -1.9954224 -0.30523682 -2.6680908 -0.9496765c-1.2379456 -1.1588135 -0.6557312 -2.4702454 -0.07348633 -3.7421265c1.5997314 -3.4481812 3.6686401 -6.6080627 6.1727905 -9.44574c1.9502258 -2.221527 4.889618 -3.7873535 8.106049 -3.7873535c1.7749634 0 3.6290894 0.474823 5.44928 1.5714722c1.9614868 1.1983948 3.2333984 3.1598816 5.341858 4.109558c1.58844 0.74050903 2.2497559 3.058136 4.1151733 3.058136c0.05657959 0 0.113098145 -0.005645752 0.1696167 -0.011291504c2.0010376 -0.107421875 2.2893677 -2.538086 3.600769 -3.776062c2.979004 -2.9055176 6.1728516 -5.4888306 10.169312 -6.540222c0.8083496 -0.22045898 1.5771484 -0.3222046 2.3007202 -0.3222046c3.3916016 0 5.94104 2.210205 8.094727 5.0818176c0.95532227 1.2888184 1.413208 1.8654175 2.0067139 1.8654175c0.5256958 0 1.170105 -0.4635315 2.385498 -1.2831726c3.0298462 -2.074585 5.8844604 -4.629608 9.824463 -4.629608c0.40698242 0 0.8253174 0.028259277 1.2605591 0.08477783c0.55963135 -0.07913208 1.1079712 -0.12435913 1.633667 -0.12435913c3.1485596 0 5.658386 1.4810181 7.5577393 4.3413086c2.5776367 3.9230347 3.267273 8.394348 3.708191 12.899597c0.25439453 2.8320312 -1.3114624 4.4656677 -3.8156128 4.539154c-0.101745605 0.0056762695 -0.20349121 0.0113220215 -0.29962158 0.0113220215z" fill-rule="evenodd"/><path fill="#e4e4e4" d="m187.98132 33.456394c-5.9460144 0 -10.594086 0.7241249 -12.709076 2.2652817c-0.16394043 -0.002735138 -0.32789612 -0.002735138 -0.4918518 -0.002735138c-32.12654 0 -40.48813 41.119354 -37.703674 65.52645c2.732544 24.01088 37.35118 33.347992 56.708527 33.932755c0.33610535 0.010940552 0.6722107 0.016403198 1.0110474 0.016403198c37.91954 0 80.678406 -62.971527 43.82184 -88.86786c-11.501282 -8.080139 -35.356415 -12.870293 -50.63681 -12.870293z" fill-rule="evenodd"/><path fill="#626262" d="m678.68353 252.60405c0.4373169 0.16444397 0.8255615 0.44844055 1.1591187 0.84576416c1.0675659 1.261795 1.0202026 2.0028687 -0.52716064 3.689499c-2.343933 2.5639343 -4.5167847 5.212494 -6.6799316 7.9215393c-0.8724365 1.132843 -2.0766602 1.982666 -3.4760742 2.3694763c-0.6911011 0.21899414 -1.4175415 0.19741821 -2.0717163 -0.048583984c-0.38397217 -0.14437866 -0.73986816 -0.36346436 -1.052124 -0.6553955c-0.91864014 -0.8161926 -0.20831299 -1.6691284 0.18066406 -3.1136475c2.4257812 -3.547699 5.2667236 -7.4871216 9.249756 -10.449234c0.14904785 -0.12657166 0.33984375 -0.21308899 0.53063965 -0.29960632c1.0033569 -0.46676636 1.9188232 -0.5486145 2.6868286 -0.2598114z" fill-rule="evenodd"/><path fill="#626262" d="m713.0893 307.1102c0.30218506 0.11364746 0.60028076 0.33529663 0.9022827 0.70858765c0.87927246 1.0611267 0.9486084 2.0530396 0.1359253 2.972992c-3.117981 3.575531 -6.3692017 7.0197754 -9.465881 10.6033325c-1.1237793 1.326477 -2.4297485 1.1194153 -3.830017 0.95809937c-0.26452637 -0.03048706 -0.4885254 -0.08227539 -0.680542 -0.15444946c-0.78570557 -0.2955017 -0.9633789 -0.9345093 -0.5512085 -1.976654c0.4354248 -0.6722412 0.7730713 -1.4299316 1.3129272 -2.0345154c2.866516 -3.2521057 5.7543945 -6.4961853 8.659058 -9.709564c0.5050659 -0.512146 1.0905151 -0.89260864 1.742981 -1.1707458c0.6199341 -0.24572754 1.2020264 -0.41235352 1.7744751 -0.19708252z" fill-rule="evenodd"/><path fill="#626262" d="m737.7061 301.15332c0.43017578 0.16177368 0.84680176 0.5863037 1.4227905 1.27771c1.0352173 1.1968384 0.45465088 2.0498962 -0.47875977 2.7945862c-3.2763062 2.6800232 -6.5894775 5.317749 -9.950256 7.9416504c-1.1460571 0.90008545 -2.560913 1.1228638 -4.020691 0.9147949c-0.33740234 -0.041656494 -0.6116333 -0.10015869 -0.82855225 -0.18170166c-0.7003784 -0.26339722 -0.7675171 -0.77560425 -0.3864746 -1.7889099c0.25805664 -0.68618774 0.6338501 -1.2753296 1.1638184 -1.7781067c3.5705566 -3.1171875 7.3427734 -6.004364 11.269104 -8.6753235c0.7976074 -0.52386475 1.3148193 -0.69055176 1.809021 -0.5046997z" fill-rule="evenodd"/><path fill="#626262" d="m682.67957 307.3418c0.6968384 0.26202393 1.0776367 0.9977112 1.251648 2.2400208c0.119628906 0.9337158 -0.3739624 1.5556946 -0.9888916 2.0792542c-1.8553467 1.5992126 -3.3242188 3.4979858 -4.730896 5.5012817c-0.8560791 1.2404785 -1.8059082 2.4497375 -3.0524292 3.3363953c-1.1842651 0.86138916 -2.604004 0.61157227 -3.723938 0.19042969c-1.0905762 -0.43447876 -0.48205566 -1.7720947 -0.24176025 -3.03714c2.1723633 -3.4888 4.769165 -6.9194336 8.261597 -9.623688c0.35144043 -0.23309326 0.7281494 -0.40390015 1.100769 -0.4991455c0.9099121 -0.31524658 1.6048584 -0.3826294 2.1239014 -0.18740845z" fill-rule="evenodd"/><path fill="#626262" d="m709.3509 293.52582c-0.0053710938 0.07913208 -0.04815674 0.19290161 -0.0099487305 0.2315979c0.07373047 0.052093506 0.14526367 0.09927368 0.206604 0.13046265l0 0l-0.19665527 -0.36206055zm0.37878418 -2.8525085c0.4977417 0.18719482 0.80133057 0.739624 0.9887085 1.4391174c0.34655762 1.2260132 0.27886963 1.3304443 -1.1517944 1.8110352l-0.0043945312 -0.009796143l0 0c-2.9942017 3.7966003 -6.8202515 6.7081604 -10.590332 9.665131c-0.86395264 0.68963623 -1.7422485 0.4567566 -2.6026611 0.13317871c-0.19909668 -0.07485962 -0.40039062 -0.15463257 -0.5994873 -0.22949219c-0.24176025 -0.090911865 -0.48266602 -0.17340088 -0.7173462 -0.22918701c-0.04046631 -0.011138916 -0.07733154 -0.020965576 -0.11291504 -0.034332275c-0.6541748 -0.2460022 -0.6435547 -1.126709 -0.22998047 -1.7625122c0.40063477 -0.57980347 0.86083984 -1.1128845 1.3827515 -1.5942993c2.838501 -2.7675476 6.0233765 -5.063965 9.29657 -7.2500305c1.0178223 -0.68859863 2.0596313 -1.3114014 3.1604004 -1.8105164c0.48431396 -0.21963501 0.8711548 -0.24459839 1.180481 -0.1282959z" fill-rule="evenodd"/><path fill="#626262" d="m687.5824 280.81485c0.26306152 0.09893799 0.5163574 0.26724243 0.76104736 0.53375244c1.3532104 1.5274963 1.3858032 2.3473206 -0.012390137 3.7775574c-2.3548584 2.3771973 -4.7004395 4.7295227 -7.1209717 7.0008545c-1.0322876 0.9428711 -2.2688599 1.5979309 -3.8673096 1.3377075c-0.27825928 -0.047821045 -0.5187378 -0.10983276 -0.73205566 -0.19006348c-0.9279175 -0.348938 -1.2105103 -1.0436401 -0.76568604 -2.280487c0.21740723 -0.43771362 0.47296143 -0.83670044 0.7711792 -1.219635c2.9056396 -2.795044 5.7695312 -5.6301575 8.746704 -8.345551c0.59088135 -0.5245056 1.4266357 -0.9122925 2.2194824 -0.61413574z" fill-rule="evenodd"/><path fill="#626262" d="m713.31616 271.24017c0.13867188 0.05215454 0.277771 0.12472534 0.41815186 0.2262268c0.3696289 0.26885986 0.20947266 2.8423767 -0.1986084 3.236786c-2.9777832 2.9221191 -6.161133 5.559967 -9.87561 7.5273438c-1.1983032 0.62887573 -2.3927002 0.9020691 -3.4557495 0.50231934c-0.12084961 -0.04547119 -0.23553467 -0.096710205 -0.34973145 -0.15994263c-0.3560791 -0.02432251 -0.65167236 -0.058380127 -0.8792114 -0.14395142c-0.27734375 -0.104278564 -0.45544434 -0.28897095 -0.5213623 -0.64245605c-0.23931885 -0.8204651 0.10827637 -1.6799622 0.84576416 -2.1087341c4.0405884 -2.7050781 8.084717 -5.4088135 12.163513 -8.075195c0.57470703 -0.38446045 1.2093506 -0.60440063 1.8528442 -0.36239624z" fill-rule="evenodd"/><path fill="#626262" d="m693.3934 262.5348c0.2880249 0.10827637 0.5599365 0.291687 0.8161621 0.5706787c0.7714844 0.8623047 0.54467773 2.3718872 -0.48828125 3.5214844c-1.968811 2.1815186 -4.1885986 4.1347046 -6.305298 6.159149c-1.2935181 1.2382812 -2.6038818 1.4313354 -4.114929 0.86312866c-0.11022949 -0.04144287 -0.22265625 -0.08779907 -0.33374023 -0.13769531c-0.13775635 -0.043701172 -0.26843262 -0.0847168 -0.3857422 -0.12884521c-1.1448364 -0.43051147 -1.2675171 -0.96765137 -0.55633545 -2.2869568c0.31628418 -0.6358948 0.7382202 -1.2076721 1.2388306 -1.6971436c2.0651245 -1.962677 4.1625977 -3.8604126 6.281433 -5.7501526c0.46362305 -0.4019165 1.0009155 -0.7192688 1.5723877 -0.9223633c0.75512695 -0.25982666 1.553772 -0.46270752 2.2755127 -0.19128418z" fill-rule="evenodd"/><path fill="#626262" d="m759.45044 305.889c0.28442383 0.10696411 0.5332031 0.2654419 0.7157593 0.4598999c1.0587769 1.2097778 1.0379639 2.581726 -0.2633667 4.024048c-1.7854004 1.9096069 -3.6432495 3.7960205 -5.5499268 5.607239c-1.2196045 1.160553 -2.6797485 1.7842712 -4.4362183 1.2536011c-0.11999512 -0.036987305 -0.23510742 -0.07623291 -0.34179688 -0.11633301c-1.1590576 -0.43588257 -1.4042969 -1.0678406 -0.90826416 -2.3868713c0.2506714 -0.87161255 0.9772339 -1.4871216 1.5886841 -2.1418457c1.972229 -2.050354 3.90271 -4.140747 6.000183 -6.0384827c0.9206543 -0.85098267 2.2669678 -1.0102234 3.1949463 -0.6612549z" fill-rule="evenodd"/><path fill="#626262" d="m737.62103 325.40134c0.26312256 0.09893799 0.5181885 0.25167847 0.75805664 0.45550537c0.8804321 0.77749634 1.8193359 1.7555237 1.0388794 3.0000916c-0.6473999 1.5056152 -5.27417 5.9746704 -7.014099 6.781311c-0.44836426 0.22097778 -0.9447632 0.5050659 -1.4173584 0.50994873c-0.6659546 0.0011901855 -1.3884277 0.0014038086 -1.9892578 -0.22454834c-0.39111328 -0.14706421 -0.72698975 -0.38702393 -0.9666748 -0.7855835c-0.6223755 -0.9888611 -0.012939453 -1.9081116 0.7182007 -2.676117c0.34448242 -0.36557007 0.5592041 -0.861084 0.8823242 -1.2346802c1.6328735 -1.914154 3.4465942 -3.683258 5.3988647 -5.270355c0.78308105 -0.6470337 1.7306519 -0.8791199 2.5910645 -0.5555725z" fill-rule="evenodd"/><path fill="#626262" d="m763.3506 280.9492c0.67193604 0.25268555 1.0777588 0.8354492 1.3126831 1.5812378c0.23931885 0.8204346 0.3607788 1.673706 -0.4790039 2.1695251c-2.6697998 1.5526733 -4.400757 4.213196 -6.974182 5.8548584c-1.1307373 0.71917725 -2.258789 1.366333 -3.645752 1.2343445c-0.3449707 -0.032318115 -0.6290283 -0.08639526 -0.8565674 -0.17193604c-0.7003784 -0.26339722 -0.8452759 -0.8170471 -0.4716797 -1.9183655c0.1317749 -0.21014404 0.31573486 -0.55895996 0.54589844 -0.8904114c2.0714111 -3.0803528 5.003174 -5.2649536 7.9385376 -7.448242c0.6014404 -0.42312622 1.2996216 -0.6069641 2.0291138 -0.5396118c0.22045898 0.017974854 0.4196167 0.060394287 0.60095215 0.12860107z" fill-rule="evenodd"/><path fill="#626262" d="m670.96106 281.7189c0.8461914 0.3182373 1.3270264 1.0144348 1.6405029 1.8749695c0.33520508 0.98638916 -0.18920898 1.7550049 -1.0370483 2.2721558c-1.4919434 0.9242554 -2.585022 2.2338562 -3.5911255 3.6573486c-0.48028564 0.65130615 -1.0796509 1.209137 -1.7615356 1.6304016c-0.60058594 0.4315796 -2.112915 0.30926514 -3.1582031 -0.08380127c-0.32354736 -0.121673584 -0.60040283 -0.27041626 -0.79364014 -0.43643188c-1.0030518 -0.87228394 -0.12915039 -1.6637268 0.03302002 -2.5158386c0.7962036 -2.387085 2.572937 -4.0686035 4.519287 -5.4996643c0.975647 -0.7815552 2.1768188 -1.1374512 3.4050903 -1.0691833c0.27294922 0.029571533 0.52319336 0.0871582 0.74365234 0.17004395z" fill-rule="evenodd"/><path fill="#626262" d="m752.54285 267.52676c0.8710327 0.32757568 0.8218994 1.559021 1.4766846 2.1055603c0.7089844 0.6074829 -0.11053467 1.2651672 -0.59820557 1.7310791c-1.8184814 1.6414795 -3.685852 3.2077637 -5.4279175 4.9266663c-1.37146 1.3591614 -2.9692993 0.8922119 -4.4873657 0.7636719c-0.12939453 -0.012145996 -0.2498169 -0.037139893 -0.3600464 -0.07858276c-0.63287354 -0.23800659 -0.8989258 -0.954895 -0.60253906 -1.7970886c0.20526123 -0.3408203 0.3892212 -0.68963623 0.63934326 -1.009491c1.7854004 -2.3843994 4.043396 -4.298889 6.347107 -6.1190796c0.6998291 -0.5444031 1.4929199 -0.5058899 2.3087769 -0.5927124c0.28723145 -0.029968262 0.51568604 -8.8500977E-4 0.7041626 0.06997681z" fill-rule="evenodd"/><path fill="#626262" d="m725.87213 246.87294c0.43023682 0.16177368 0.8171387 0.481781 1.1118774 1.0146637c0.6763916 1.2445526 0.37994385 2.5940094 -0.8954468 3.4170837c-1.8701172 1.2284088 -3.6016846 2.638794 -5.1818237 4.2075806c-1.2108154 1.2125854 -2.4222412 1.1750183 -3.8795776 0.67974854c-0.06890869 -0.021850586 -0.13287354 -0.045928955 -0.19329834 -0.06866455c-1.0488892 -0.39440918 -1.5093384 -0.99368286 -0.868042 -2.1809998c1.7642212 -3.0943909 4.507324 -5.532593 7.8117676 -6.895294c0.6809082 -0.29989624 1.4368286 -0.421463 2.0945435 -0.17411804z" fill-rule="evenodd"/><path fill="#626262" d="m734.5945 287.6829c0.36975098 0.13903809 0.6935425 0.44345093 0.91534424 0.9975891c0.63653564 1.5663757 0.2701416 2.6054688 -1.0359497 3.445404c-1.6948242 1.107666 -3.508789 2.1218262 -5.039673 3.3439026c-1.4423828 1.1701355 -2.8585815 1.3639832 -3.9606934 0.9495239c-0.07470703 -0.028076172 -0.14801025 -0.0597229 -0.22003174 -0.09490967c-0.1461792 -0.042816162 -0.27911377 -0.0887146 -0.4071045 -0.13684082c-1.7243042 -0.648468 -1.8309937 -1.6706238 -0.5466919 -3.013855c2.3709106 -2.4198608 5.2475586 -4.101715 8.404724 -5.2884827c0.61505127 -0.24349976 1.3105469 -0.42025757 1.8900757 -0.20233154z" fill-rule="evenodd"/><path fill="#626262" d="m699.8169 243.47859c0.41949463 0.15776062 0.77319336 0.40438843 1.0062866 0.72335815c0.80633545 1.1148529 0.5773926 2.4897156 -0.62945557 3.7565308c-1.0617676 1.0860138 -2.0999756 2.1849365 -3.1750488 3.2415924c-0.6923828 0.7298126 -1.5314331 1.2989807 -2.4796143 1.6728821c-0.74798584 0.26249695 -1.4263916 0.21031189 -2.052124 -0.025009155c-0.46221924 -0.17381287 -0.89538574 -0.44628906 -1.3027954 -0.76586914c-0.6837158 -0.5452423 -0.3460083 -1.3029327 -0.002380371 -2.2166595c1.2745972 -2.418213 3.34375 -4.4564667 5.7860107 -6.0947113c0.87719727 -0.562912 1.9957886 -0.6130066 2.849121 -0.29211426z" fill-rule="evenodd"/><path fill="#626262" d="m733.12915 269.34897c0.6719971 0.25271606 1.019165 1.2070923 1.5615845 1.6748352c0.61657715 0.5727539 0.38275146 1.4750061 -0.39001465 2.0731506c-1.7723999 1.3138733 -3.5292969 2.6619873 -5.289734 4.0087585c-0.98760986 0.7486572 -2.0430298 0.7170105 -3.151001 0.32876587c-0.14758301 -0.039276123 -0.28753662 -0.08786011 -0.41912842 -0.1373291c-1.2123413 -0.45593262 -1.600647 -1.2471924 -0.90356445 -2.1619263c1.9758911 -2.6211853 4.7018433 -4.388092 7.647522 -5.7030945c0.3815918 -0.17303467 0.68481445 -0.18075562 0.94433594 -0.0831604z" fill-rule="evenodd"/><path fill="#626262" d="m720.9738 324.04337c0.69329834 0.2607422 1.2363281 0.9965515 1.6326904 2.143921c0.32019043 0.87524414 0.012634277 1.283081 -0.5648804 1.7720032c-1.1621094 0.94277954 -2.3966675 1.8623657 -3.4006348 2.9457703c-1.4116211 1.5307007 -3.0877075 1.1317139 -4.73291 0.93099976c-0.16046143 -0.015686035 -0.30230713 -0.048736572 -0.42315674 -0.094177246c-0.668396 -0.2513733 -0.7344971 -0.9173889 -0.44299316 -1.6924744c1.055542 -2.6020203 3.4699097 -3.885498 5.5479126 -5.396942c0.93066406 -0.67266846 1.7261963 -0.8564453 2.3839722 -0.60910034z" fill-rule="evenodd"/><path fill="#626262" d="m709.3509 293.52582l0.19665527 0.36206055l0 0c-0.061340332 -0.031188965 -0.13287354 -0.07836914 -0.206604 -0.13046265c-0.028869629 -0.06359863 0.0045776367 -0.15246582 0.0099487305 -0.2315979zm0.19665527 0.36206055c0.010620117 0.0039978027 0.01776123 0.0066833496 0.028442383 0.010681152l-0.009399414 0.024902344l-0.019042969 -0.035583496z" fill-rule="evenodd"/><path fill="#e4e4e4" d="m581.2889 463.19327c-2.1141357 0 -3.4312134 -1.1249084 -3.951233 -3.24469c-0.6557617 -2.7981262 -1.0570679 -5.6301575 -1.9615479 -8.320862c-0.6500244 -1.8936768 -1.5205688 -2.69635 -2.848938 -2.69635c-0.6783447 0 -1.4754028 0.20913696 -2.4194336 0.5878906c-3.4934082 1.4188232 -5.2005005 4.5448 -7.195923 7.2694397c-1.3849487 1.865387 -2.7924805 2.8489685 -4.838745 2.8489685c-0.26568604 0 -0.5426636 -0.016937256 -0.83099365 -0.050872803c-2.6850586 -0.32785034 -4.397827 -1.8145142 -5.22876 -4.3582764c-0.36743164 -1.1644592 -0.8027344 -2.2893677 -1.3114624 -3.3803406c-1.0288086 -2.1028137 -1.7467041 -3.0751038 -2.7020264 -3.0751038c-0.80267334 0 -1.7636719 0.6783447 -3.2164307 1.9501953c-2.7302856 2.4306946 -4.618286 5.556671 -7.1620483 8.134338c-1.701477 1.7071228 -3.2163696 2.5606995 -4.7539673 2.5606995c-1.4414062 0 -2.9111328 -0.75183105 -4.5843506 -2.2667542c-1.8880005 -1.7467041 -3.6290894 -3.634735 -5.44928 -5.44928c-2.6171875 -2.617218 -4.0925903 -3.962555 -5.3983765 -3.962555c-1.4301147 0 -2.6567993 1.6166687 -4.9574585 4.9404907c-1.1249084 1.5997314 -1.9615173 3.4142761 -3.5216675 4.6861267c-0.72354126 0.5765991 -1.7184448 0.8761902 -2.707672 0.8761902c-1.0005493 0 -1.9954224 -0.30523682 -2.6680908 -0.9496765c-1.2379456 -1.1588135 -0.6557312 -2.4702454 -0.07348633 -3.7421265c1.5997314 -3.4481812 3.6686401 -6.6080627 6.1727905 -9.44574c1.9502258 -2.221527 4.889618 -3.7873535 8.106049 -3.7873535c1.7749634 0 3.6290894 0.474823 5.44928 1.5714722c1.9614868 1.1983948 3.2333984 3.1598816 5.341858 4.109558c1.58844 0.74050903 2.2497559 3.058136 4.1151733 3.058136c0.05657959 0 0.113098145 -0.005645752 0.1696167 -0.011291504c2.0010376 -0.107421875 2.2893677 -2.538086 3.600769 -3.776062c2.979004 -2.9055176 6.1728516 -5.4888306 10.169312 -6.540222c0.8083496 -0.22045898 1.5771484 -0.3222046 2.3007202 -0.3222046c3.3916016 0 5.94104 2.210205 8.094727 5.0818176c0.95532227 1.2888184 1.413208 1.8654175 2.0067139 1.8654175c0.5256958 0 1.170105 -0.4635315 2.385498 -1.2831726c3.0298462 -2.074585 5.8844604 -4.629608 9.824463 -4.629608c0.40698242 0 0.8253174 0.028259277 1.2605591 0.08477783c0.55963135 -0.07913208 1.1079712 -0.12435913 1.633667 -0.12435913c3.1485596 0 5.658386 1.4810181 7.5577393 4.3413086c2.5776367 3.9230347 3.267273 8.394348 3.708191 12.899597c0.25439453 2.8320312 -1.3114624 4.4656677 -3.8156128 4.539154c-0.101745605 0.0056762695 -0.20349121 0.0113220215 -0.29962158 0.0113220215z" fill-rule="evenodd"/><path fill="#e4e4e4" d="m781.2889 135.19327c-2.1141357 0 -3.4312134 -1.1249084 -3.951233 -3.24469c-0.6557617 -2.798111 -1.0570679 -5.630142 -1.9615479 -8.320854c-0.6500244 -1.8936768 -1.5205688 -2.6963654 -2.848938 -2.6963654c-0.6783447 0 -1.4754028 0.20915222 -2.4194336 0.587883c-3.4934082 1.4188461 -5.2005005 4.544815 -7.195923 7.2694397c-1.3849487 1.8654175 -2.7924805 2.848999 -4.838745 2.848999c-0.26568604 0 -0.5426636 -0.016967773 -0.83099365 -0.050872803c-2.6850586 -0.3278656 -4.397827 -1.8145447 -5.22876 -4.3582764c-0.36743164 -1.1644745 -0.8027344 -2.2893677 -1.3114624 -3.3803482c-1.0288086 -2.102829 -1.7467041 -3.0751038 -2.7020264 -3.0751038c-0.80267334 0 -1.7636719 0.67832947 -3.2164307 1.950203c-2.7302856 2.430687 -4.618286 5.556656 -7.1620483 8.134308c-1.701477 1.7071381 -3.2163696 2.5606995 -4.7539673 2.5606995c-1.4414062 0 -2.9111328 -0.7518158 -4.5843506 -2.2667542c-1.8880005 -1.7466888 -3.6290894 -3.6347198 -5.44928 -5.4492493c-2.6171875 -2.6172256 -4.0925903 -3.9625854 -5.3983765 -3.9625854c-1.4301147 0 -2.6567993 1.6166916 -4.9574585 4.9405136c-1.1248779 1.5997238 -1.9614868 3.4142685 -3.5216675 4.6861343c-0.7235718 0.57658386 -1.7184448 0.8761749 -2.7076416 0.8761749c-1.0005493 0 -1.9954224 -0.30525208 -2.6681519 -0.94966125c-1.237915 -1.1588135 -0.6557007 -2.4702606 -0.07348633 -3.7421265c1.5997314 -3.4481812 3.6686401 -6.6080704 6.1728516 -9.445755c1.9501953 -2.2215347 4.8895874 -3.787346 8.106018 -3.787346c1.7749634 0 3.6290894 0.47483063 5.44928 1.5714645c1.9614868 1.1983871 3.2333984 3.1598892 5.341858 4.1095505c1.58844 0.74051666 2.2497559 3.0581436 4.1151733 3.0581436c0.05657959 0 0.113098145 -0.0056533813 0.1696167 -0.011306763c2.0010376 -0.10739899 2.2893677 -2.538086 3.600769 -3.7760391c2.979004 -2.9055176 6.1728516 -5.488823 10.169312 -6.5402374c0.8083496 -0.22045898 1.5771484 -0.3222046 2.3007202 -0.3222046c3.3916016 0 5.94104 2.2102203 8.094727 5.0818253c0.95532227 1.288826 1.413208 1.8654099 2.0067139 1.8654099c0.5256958 0 1.170105 -0.46352386 2.385498 -1.2831802c3.0298462 -2.074562 5.8844604 -4.6296005 9.824463 -4.6296005c0.40698242 0 0.8253174 0.028259277 1.2605591 0.08478546c0.55963135 -0.07913971 1.1079712 -0.12435913 1.633667 -0.12435913c3.1485596 0 5.658386 1.4810257 7.5577393 4.341316c2.5776367 3.9230118 3.267273 8.3943405 3.708191 12.89959c0.25439453 2.8320312 -1.3114624 4.465683 -3.8156128 4.5391693c-0.101745605 0.005645752 -0.20349121 0.011306763 -0.29962158 0.011306763z" fill-rule="evenodd"/><path fill="#e4e4e4" d="m781.2889 111.19326c-2.1141357 0 -3.4312134 -1.1249008 -3.951233 -3.2446823c-0.6557617 -2.798111 -1.0570679 -5.630142 -1.9615479 -8.320854c-0.6500244 -1.8936768 -1.5205688 -2.6963654 -2.848938 -2.6963654c-0.6783447 0 -1.4754028 0.20915222 -2.4194336 0.587883c-3.4934082 1.4188461 -5.2005005 4.544815 -7.195923 7.2694473c-1.3849487 1.8654099 -2.7924805 2.8489914 -4.838745 2.8489914c-0.26568604 0 -0.5426636 -0.016960144 -0.83099365 -0.050880432c-2.6850586 -0.32785797 -4.397827 -1.8145294 -5.22876 -4.3582687c-0.36743164 -1.1644745 -0.8027344 -2.2893677 -1.3114624 -3.3803482c-1.0288086 -2.102829 -1.7467041 -3.0751038 -2.7020264 -3.0751038c-0.80267334 0 -1.7636719 0.67832947 -3.2164307 1.950203c-2.7302856 2.430687 -4.618286 5.556656 -7.1620483 8.1343155c-1.701477 1.7071304 -3.2163696 2.5606995 -4.7539673 2.5606995c-1.4414062 0 -2.9111328 -0.7518158 -4.5843506 -2.2667542c-1.8880005 -1.7467041 -3.6290894 -3.6347275 -5.44928 -5.449257c-2.6171875 -2.6172256 -4.0925903 -3.9625854 -5.3983765 -3.9625854c-1.4301147 0 -2.6567993 1.6166916 -4.9574585 4.9405136c-1.1248779 1.5997238 -1.9614868 3.4142609 -3.5216675 4.6861343c-0.7235718 0.57657623 -1.7184448 0.8761749 -2.7076416 0.8761749c-1.0005493 0 -1.9954224 -0.30525208 -2.6681519 -0.94966125c-1.237915 -1.1588211 -0.6557007 -2.4702606 -0.07348633 -3.7421265c1.5997314 -3.4481812 3.6686401 -6.6080704 6.1728516 -9.445755c1.9501953 -2.2215347 4.8895874 -3.787346 8.106018 -3.787346c1.7749634 0 3.6290894 0.47483063 5.44928 1.5714645c1.9614868 1.1983871 3.2333984 3.1598892 5.341858 4.1095505c1.58844 0.74051666 2.2497559 3.0581436 4.1151733 3.0581436c0.05657959 0 0.113098145 -0.0056533813 0.1696167 -0.011306763c2.0010376 -0.10739899 2.2893677 -2.538086 3.600769 -3.7760391c2.979004 -2.9055176 6.1728516 -5.488823 10.169312 -6.5402374c0.8083496 -0.22045898 1.5771484 -0.3222046 2.3007202 -0.3222046c3.3916016 0 5.94104 2.2102203 8.094727 5.0818253c0.95532227 1.288826 1.413208 1.8654099 2.0067139 1.8654099c0.5256958 0 1.170105 -0.46352386 2.385498 -1.2831802c3.0298462 -2.074562 5.8844604 -4.6296005 9.824463 -4.6296005c0.40698242 0 0.8253174 0.028259277 1.2605591 0.08478546c0.55963135 -0.07913971 1.1079712 -0.12435913 1.633667 -0.12435913c3.1485596 0 5.658386 1.4810257 7.5577393 4.341316c2.5776367 3.9230118 3.267273 8.3943405 3.708191 12.89959c0.25439453 2.8320312 -1.3114624 4.4656754 -3.8156128 4.5391617c-0.101745605 0.0056533813 -0.20349121 0.011306763 -0.29962158 0.011306763z" fill-rule="evenodd"/><path fill="#e4e4e4" d="m221.28891 335.19327c-2.1141357 0 -3.4312286 -1.1249084 -3.9512787 -3.24469c-0.6557312 -2.7981262 -1.0570679 -5.6301575 -1.9615173 -8.320862c-0.65005493 -1.8936768 -1.5205841 -2.69635 -2.8489838 -2.69635c-0.67832947 0 -1.4753723 0.20913696 -2.4193726 0.5878906c-3.4934082 1.4188232 -5.2005463 4.5448 -7.1959686 7.2694397c-1.3849182 1.865387 -2.79245 2.8489685 -4.8387604 2.8489685c-0.26567078 0 -0.5426636 -0.016937256 -0.8309479 -0.050872803c-2.6850586 -0.32785034 -4.3978424 -1.8145142 -5.2288055 -4.3582764c-0.36741638 -1.1644592 -0.8026886 -2.2893677 -1.3114319 -3.3803406c-1.0288086 -2.1028137 -1.7467041 -3.0751038 -2.7020264 -3.0751038c-0.8026886 0 -1.7636566 0.6783447 -3.2164154 1.9501953c-2.7302704 2.4306946 -4.6183014 5.556671 -7.162033 8.134338c-1.701477 1.7071228 -3.2164154 2.5606995 -4.7539673 2.5606995c-1.441452 0 -2.9111786 -0.75183105 -4.5843964 -2.2667542c-1.8880157 -1.7467041 -3.6290588 -3.634735 -5.4492493 -5.44928c-2.6172333 -2.617218 -4.0925903 -3.962555 -5.3983765 -3.962555c-1.4301605 0 -2.6567993 1.6166687 -4.9574738 4.9404907c-1.1248932 1.5997314 -1.9615021 3.4142761 -3.5216675 4.6861267c-0.7235565 0.5765991 -1.7184296 0.8761902 -2.707672 0.8761902c-1.000534 0 -1.9954224 -0.30523682 -2.6680908 -0.9496765c-1.2379608 -1.1588135 -0.6557312 -2.4702454 -0.07348633 -3.7421265c1.5997162 -3.4481812 3.6686249 -6.6080627 6.172806 -9.44574c1.9501953 -2.221527 4.889633 -3.7873535 8.106049 -3.7873535c1.7749634 0 3.629074 0.474823 5.4492645 1.5714722c1.9615021 1.1983948 3.233368 3.1598816 5.3418427 4.109558c1.5884247 0.74050903 2.2498016 3.058136 4.115204 3.058136c0.056533813 0 0.11306763 -0.005645752 0.16958618 -0.011291504c2.0010834 -0.107421875 2.2893677 -2.538086 3.6008148 -3.776062c2.979004 -2.9055176 6.172806 -5.4888306 10.169296 -6.540222c0.8083496 -0.22045898 1.5771179 -0.3222046 2.3006744 -0.3222046c3.3916626 0 5.9410553 2.210205 8.094757 5.0818176c0.955307 1.2888184 1.4131775 1.8654175 2.0067139 1.8654175c0.52571106 0 1.1701202 -0.4635315 2.3854675 -1.2831726c3.0298767 -2.074585 5.8845215 -4.629608 9.824493 -4.629608c0.40699768 0 0.8253021 0.028259277 1.2605591 0.08477783c0.55963135 -0.07913208 1.1079407 -0.12435913 1.6336517 -0.12435913c3.14859 0 5.6584015 1.4810181 7.5577393 4.3413086c2.577652 3.9230347 3.2672882 8.394348 3.7082062 12.899597c0.254364 2.8320312 -1.3114471 4.4656677 -3.8156128 4.539154c-0.101745605 0.0056762695 -0.20350647 0.0113220215 -0.29959106 0.0113220215z" fill-rule="evenodd"/><path fill="#e4e4e4" d="m221.28891 311.19327c-2.1141357 0 -3.4312286 -1.1249084 -3.9512787 -3.24469c-0.6557312 -2.7981262 -1.0570679 -5.6301575 -1.9615173 -8.320862c-0.65005493 -1.8936768 -1.5205841 -2.69635 -2.8489838 -2.69635c-0.67832947 0 -1.4753723 0.20913696 -2.4193726 0.5878906c-3.4934082 1.4188232 -5.2005463 4.5448 -7.1959686 7.2694397c-1.3849182 1.865387 -2.79245 2.8489685 -4.8387604 2.8489685c-0.26567078 0 -0.5426636 -0.016937256 -0.8309479 -0.050872803c-2.6850586 -0.32785034 -4.3978424 -1.8145142 -5.2288055 -4.3582764c-0.36741638 -1.1644592 -0.8026886 -2.2893677 -1.3114319 -3.3803406c-1.0288086 -2.1028137 -1.7467041 -3.0751038 -2.7020264 -3.0751038c-0.8026886 0 -1.7636566 0.6783447 -3.2164154 1.9501953c-2.7302704 2.4306946 -4.6183014 5.556671 -7.162033 8.134338c-1.701477 1.7071228 -3.2164154 2.5606995 -4.7539673 2.5606995c-1.441452 0 -2.9111786 -0.75183105 -4.5843964 -2.2667542c-1.8880157 -1.7467041 -3.6290588 -3.634735 -5.4492493 -5.44928c-2.6172333 -2.617218 -4.0925903 -3.962555 -5.3983765 -3.962555c-1.4301605 0 -2.6567993 1.6166687 -4.9574738 4.9404907c-1.1248932 1.5997314 -1.9615021 3.4142761 -3.5216675 4.6861267c-0.7235565 0.5765991 -1.7184296 0.8761902 -2.707672 0.8761902c-1.000534 0 -1.9954224 -0.30523682 -2.6680908 -0.9496765c-1.2379608 -1.1588135 -0.6557312 -2.4702454 -0.07348633 -3.7421265c1.5997162 -3.4481812 3.6686249 -6.6080627 6.172806 -9.44574c1.9501953 -2.221527 4.889633 -3.7873535 8.106049 -3.7873535c1.7749634 0 3.629074 0.474823 5.4492645 1.5714722c1.9615021 1.1983948 3.233368 3.1598816 5.3418427 4.109558c1.5884247 0.74050903 2.2498016 3.058136 4.115204 3.058136c0.056533813 0 0.11306763 -0.005645752 0.16958618 -0.011291504c2.0010834 -0.107421875 2.2893677 -2.538086 3.6008148 -3.776062c2.979004 -2.9055176 6.172806 -5.4888306 10.169296 -6.540222c0.8083496 -0.22045898 1.5771179 -0.3222046 2.3006744 -0.3222046c3.3916626 0 5.9410553 2.210205 8.094757 5.0818176c0.955307 1.2888184 1.4131775 1.8654175 2.0067139 1.8654175c0.52571106 0 1.1701202 -0.4635315 2.3854675 -1.2831726c3.0298767 -2.074585 5.8845215 -4.629608 9.824493 -4.629608c0.40699768 0 0.8253021 0.028259277 1.2605591 0.08477783c0.55963135 -0.07913208 1.1079407 -0.12435913 1.6336517 -0.12435913c3.14859 0 5.6584015 1.4810181 7.5577393 4.3413086c2.577652 3.9230347 3.2672882 8.394348 3.7082062 12.899597c0.254364 2.8320312 -1.3114471 4.4656677 -3.8156128 4.539154c-0.101745605 0.0056762695 -0.20350647 0.0113220215 -0.29959106 0.0113220215z" fill-rule="evenodd"/><path fill="#101c20" d="m640.5277 171.98299c-1.916687 4.8535767 -7.487488 7.5901794 -11.879211 5.8558807c-4.1710815 -1.7609711 -6.164734 -6.4869843 -4.5111694 -10.67424c0.011962891 -0.030288696 0.023925781 -0.060577393 0.035888672 -0.09086609c1.8827515 -4.3243256 8.321777 -6.954376 12.68042 -5.1806335c3.7546387 1.5965118 5.3083496 5.641159 3.77417 9.814285c-0.028320312 0.09384155 -0.064208984 0.18470764 -0.100097656 0.27557373z" fill-rule="evenodd"/><path fill="#101c20" d="m595.36096 173.62993c-0.1854248 0.4694519 -0.41601562 0.96481323 -0.6889038 1.4785004c-0.6043701 1.1092529 -1.4233398 3.6042175 -3.4290771 5.402954c-3.0283203 2.6815643 -6.6899414 2.977356 -9.380371 0.6807556c-2.468872 -2.104065 -3.218689 -5.524872 -2.076416 -8.417343c0.2810669 -0.7117615 0.67871094 -1.3862305 1.1869507 -2.0082855c1.9017944 -2.3999481 4.579468 -4.038376 7.5985107 -4.701721c2.1671753 -0.5008545 4.340637 -0.59658813 6.0058594 1.3039093c1.4859009 1.6896362 1.84198 3.58078 0.78344727 6.2612305z" fill-rule="evenodd"/><path fill="#101c20" d="m619.3451 141.42107c-1.6326294 4.134262 -6.196228 6.2707977 -10.017273 4.7093506c-3.5019531 -1.5492554 -5.2563477 -5.506836 -4.0962524 -9.153748c0.029846191 -0.07571411 0.05218506 -0.1544342 0.08508301 -0.23771667c1.560852 -3.95253 6.7285156 -6.2444 10.604309 -4.600052c3.4139404 1.4619446 4.922241 5.4886475 3.4241333 9.282166z" fill-rule="evenodd"/><path fill="#101c20" d="m650.1958 135.68736c-0.29003906 0.73446655 -0.7388916 1.4499817 -1.3132935 2.15094c-1.4320068 1.6314392 -3.1903687 2.9589233 -5.130432 3.8820648c-2.161621 1.0632019 -4.5408936 1.8129272 -6.6452637 -0.2610016c-2.1062012 -2.1358948 -2.7988892 -4.615143 -2.0513916 -6.5081177c0.023925781 -0.060577393 0.047851562 -0.12113953 0.0793457 -0.1787262c1.8997192 -4.256378 4.4193726 -6.0709686 7.776367 -6.880928c2.8572998 -0.67472076 5.045532 0.18943024 6.68042 2.7431412c1.1234131 1.7653046 1.2411499 3.439804 0.60424805 5.0526276z" fill-rule="evenodd"/><path fill="#101c20" d="m620.8754 165.89397c-0.29901123 0.7571869 -0.70843506 1.5057983 -1.1678467 2.2259064c-0.9216919 1.4916077 -2.0997314 2.7681732 -3.5162964 3.784256c-2.364441 1.70961 -5.010681 2.5814362 -7.7125244 0.44664c-2.3999023 -1.9017944 -3.116272 -4.9417877 -1.8908691 -8.17778c0.03729248 -0.11656189 0.08514404 -0.23771667 0.13293457 -0.35887146c0.83428955 -2.1125488 2.4594116 -3.8340302 4.5369263 -4.772888c2.965393 -1.5248108 7.222168 -0.9116211 8.946106 1.2834015c1.4701538 1.8847198 1.3832397 3.7672272 0.6715698 5.569336z" fill-rule="evenodd"/><path fill="#101c20" d="m600.80194 198.06297c-1.6019897 3.1922913 -4.2382812 5.3022003 -7.984253 5.678482c-2.866516 0.2771759 -5.6224365 -1.4325714 -6.6171875 -4.1886444c-0.41290283 -1.4146881 -0.35809326 -2.7059631 0.084472656 -3.8265991c0.45147705 -1.1433563 1.2983398 -2.1130981 2.4484253 -2.875534c1.5993042 -1.0577087 3.5807495 -1.5093689 5.347595 -2.2820892c2.1727905 -0.93626404 4.310425 -0.9411316 5.9869995 0.7975464c1.9815063 1.9641113 1.6228638 4.290756 0.73394775 6.6968384z" fill-rule="evenodd"/><path fill="#101c20" d="m596.8182 147.5097c-1.3336182 3.37706 -6.086731 5.3950043 -9.50824 3.9300537c-2.7079468 -1.1218872 -4.116333 -4.0938263 -3.2367554 -6.897461c0.016357422 -0.063568115 0.040283203 -0.12413025 0.06121826 -0.17713928c1.1541748 -2.9227448 6.004883 -4.744583 9.369629 -3.4683685c2.6483765 0.9845886 4.1845703 3.7881622 3.4528809 6.1950684c-0.03869629 0.14227295 -0.0848999 0.28155518 -0.13873291 0.41784668z" fill-rule="evenodd"/><path fill="#101c20" d="m609.1618 115.631714c-1.1294556 2.7049484 -6.4713135 5.2606354 -8.746643 4.195793c-2.1087036 -0.99905396 -2.9701538 -4.026314 -1.9116211 -6.706764c0.014953613 -0.037857056 0.029907227 -0.07571411 0.041870117 -0.10600281c1.3028564 -3.1441193 4.949951 -4.688545 8.076172 -3.3402252c2.293274 1.0194092 3.4111938 3.59655 2.5402222 5.957199z" fill-rule="evenodd"/><path fill="#e4e4e4" d="m137.522 400.93277c-5.9460144 0 -10.594078 0.7241211 -12.709068 2.2652893c-0.16394806 -0.002746582 -0.32790375 -0.002746582 -0.49185944 -0.002746582c-32.12654 0 -40.48813 41.119354 -37.703667 65.52646c2.732544 24.010895 37.351173 33.347992 56.70852 33.93277c0.33610535 0.010925293 0.6722107 0.01638794 1.0110474 0.01638794c37.91954 0 80.67842 -62.971527 43.82184 -88.86786c-11.501282 -8.080139 -35.356415 -12.8703 -50.63681 -12.8703z" fill-rule="evenodd"/><path fill="#e4e4e4" d="m867.7871 265.4564c-5.946045 0 -10.594116 0.7241211 -12.709106 2.2652893c-0.16394043 -0.002746582 -0.32788086 -0.002746582 -0.4918213 -0.002746582c-32.126526 0 -40.48816 41.119354 -37.703674 65.52646c2.732544 24.010895 37.351135 33.347992 56.708496 33.93277c0.3361206 0.010925293 0.6722412 0.01638794 1.0110474 0.01638794c37.919556 0 80.67847 -62.971527 43.82184 -88.86786c-11.501282 -8.080139 -35.356384 -12.8703 -50.63678 -12.8703z" fill-rule="evenodd"/><path fill="#626262" d="m338.35455 324.9604c0.45306396 -0.11401367 0.93395996 -0.10189819 1.4344177 0.034576416c1.5962524 0.42861938 1.9795532 1.0646057 1.6690063 3.3322449c-0.46533203 3.4424438 -0.7418518 6.856964 -0.97592163 10.315643c-0.07144165 1.428009 -0.5768738 2.8125 -1.5064697 3.9277344c-0.44314575 0.57369995 -1.0523682 0.96987915 -1.730133 1.1404419c-0.39779663 0.100128174 -0.815094 0.12289429 -1.2380371 0.060913086c-1.2199402 -0.14730835 -1.1221924 -1.2529602 -1.6255493 -2.6616516c-0.027954102 -4.2974854 0.062042236 -9.153442 1.6474304 -13.856995c0.05038452 -0.18890381 0.15786743 -0.36871338 0.26538086 -0.54852295c0.55859375 -0.95529175 1.2642517 -1.5441589 2.0598755 -1.7443848z" fill-rule="evenodd"/><path fill="#626262" d="m397.68378 350.1483c0.31307983 -0.078826904 0.6843567 -0.0664978 1.1451721 0.06820679c1.327179 0.3710022 1.9493103 1.1466064 1.8056641 2.365631c-0.52505493 4.714752 -1.234375 9.397583 -1.7373352 14.106781c-0.16769409 1.7303467 -1.3588562 2.3042908 -2.601471 2.9695435c-0.2347107 0.12567139 -0.44830322 0.2107544 -0.6472168 0.26080322c-0.8140564 0.20489502 -1.3241577 -0.21899414 -1.5792236 -1.3102722c-0.02520752 -0.8005066 -0.17941284 -1.6155396 -0.08026123 -2.4199219c0.502655 -4.305725 1.0274048 -8.616974 1.5835266 -12.912659c0.12322998 -0.70861816 0.38754272 -1.3547974 0.7652283 -1.9551086c0.3694458 -0.5551758 0.75286865 -1.0237732 1.3459167 -1.1730042z" fill-rule="evenodd"/><path fill="#626262" d="m414.51892 331.2273c0.44570923 -0.11218262 1.0299377 -7.019043E-4 1.8972168 0.23928833c1.5326233 0.39370728 1.541626 1.4254761 1.198883 2.569275c-1.1654053 4.0690613 -2.3851624 8.12442 -3.6519165 12.195496c-0.42892456 1.3926392 -1.4646912 2.381836 -2.782837 3.0426025c-0.30099487 0.1579895 -0.5596924 0.26617432 -0.7843933 0.3227234c-0.725647 0.1826477 -1.0726318 -0.20004272 -1.3368225 -1.2498474c-0.17892456 -0.710907 -0.20581055 -1.4091492 -0.056793213 -2.1242676c1.1581421 -4.595978 2.6130066 -9.117859 4.3176575 -13.549805c0.3569641 -0.88494873 0.6870117 -1.3166199 1.1990051 -1.4454651z" fill-rule="evenodd"/><path fill="#626262" d="m372.82614 367.66504c0.72195435 -0.18170166 1.45401 0.2059021 2.30484 1.1276245c0.63031006 0.6991577 0.5790405 1.4914856 0.3720703 2.2720947c-0.61346436 2.3713074 -0.738678 4.7685547 -0.75323486 7.216278c0.0032958984 1.5071106 -0.088256836 3.0420532 -0.6074219 4.480896c-0.48236084 1.3825989 -1.7914124 1.9862366 -2.9517212 2.2782593c-1.1437378 0.26434326 -1.4057922 -1.1815796 -1.9290771 -2.3580933c-0.20269775 -4.1046753 -0.023376465 -8.403412 1.3057861 -12.61554c0.15597534 -0.39178467 0.3682251 -0.74679565 0.6201782 -1.0373535c0.56811523 -0.77749634 1.1007996 -1.2288208 1.6385803 -1.3641663z" fill-rule="evenodd"/><path fill="#626262" d="m386.87177 341.11514c0.040649414 0.06808472 0.0703125 0.18597412 0.1237793 0.1960144c0.090270996 7.6293945E-4 0.17593384 -0.0011901855 0.2441101 -0.010528564l0 0l-0.3678894 -0.18548584zm-1.3139954 -2.5598755c0.51568604 -0.12979126 1.079895 0.1512146 1.6324768 0.6192322c0.9833069 0.8100586 0.9871826 0.9344177 0.085357666 2.1445007l-0.009216309 -0.005493164l0 0c-0.29733276 4.8258667 -1.7825317 9.3984375 -3.1958618 13.97641c-0.31707764 1.0589905 -1.1714783 1.368042 -2.0628662 1.5923767c-0.20629883 0.0519104 -0.4171753 0.10107422 -0.6234436 0.15298462c-0.25048828 0.06304932 -0.49542236 0.13250732 -0.72006226 0.22039795c-0.0395813 0.013885498 -0.07550049 0.026824951 -0.112335205 0.036102295c-0.6777649 0.17056274 -1.1708374 -0.5592041 -1.1932373 -1.3173218c-0.0010986328 -0.70474243 0.07333374 -1.4049988 0.22793579 -2.0980225c0.7557373 -3.8915405 2.0644836 -7.5932617 3.5087585 -11.254669c0.44406128 -1.1457825 0.9453125 -2.2511292 1.5654907 -3.2885132c0.27288818 -0.4564209 0.5765381 -0.6973572 0.8970032 -0.7779846z" fill-rule="evenodd"/><path fill="#626262" d="m361.7409 343.07272c0.272583 -0.068603516 0.5765686 -0.07461548 0.9295349 0.0049743652c1.9823303 0.4842224 2.4762268 1.1393433 2.1421509 3.1113281c-0.5806885 3.295227 -1.1679077 6.5646667 -1.862915 9.810364c-0.3110962 1.3629761 -0.9539795 2.6058044 -2.415802 3.3027344c-0.2559204 0.11923218 -0.48886108 0.20526123 -0.7098694 0.26089478c-0.96136475 0.24194336 -1.589386 -0.16793823 -1.9285583 -1.4377747c-0.07077026 -0.4835205 -0.08810425 -0.95700073 -0.06121826 -1.4416199c0.79522705 -3.952423 1.5333557 -7.9139404 2.4327393 -11.841644c0.18670654 -0.7677002 0.65252686 -1.5625305 1.473938 -1.7692566z" fill-rule="evenodd"/><path fill="#626262" d="m377.43268 320.54233c0.14364624 -0.03616333 0.2993164 -0.055755615 0.47250366 -0.052337646c0.4569397 0.010345459 1.7915955 2.2164307 1.6809998 2.7730103c-0.7821045 4.0979614 -1.8951416 8.079437 -3.8265991 11.8125305c-0.6263733 1.1995239 -1.45224 2.1045532 -2.5535889 2.3817139c-0.12524414 0.03152466 -0.24862671 0.054748535 -0.37850952 0.067871094c-0.30648804 0.18286133 -0.56881714 0.32330322 -0.8045654 0.3826599c-0.28729248 0.07229614 -0.5388794 0.022033691 -0.7944641 -0.23092651c-0.66412354 -0.5378723 -0.8682251 -1.4421997 -0.5064697 -2.2147522c1.7791443 -4.525116 3.5619507 -9.051178 5.3945312 -13.566254c0.25326538 -0.6434326 0.6494446 -1.18573 1.3161621 -1.3535156z" fill-rule="evenodd"/><path fill="#626262" d="m356.1008 324.7399c0.29837036 -0.07510376 0.62631226 -0.07928467 0.9958801 0.003967285c1.1252441 0.26904297 1.7989807 1.638794 1.6051636 3.1720276c-0.37496948 2.9144287 -1.0862427 5.7842712 -1.6722107 8.6539c-0.3574524 1.7546082 -1.3242188 2.659851 -2.8897095 3.053833c-0.11419678 0.028747559 -0.23297119 0.054718018 -0.35272217 0.07702637c-0.13809204 0.04260254 -0.26885986 0.083343506 -0.39041138 0.11392212c-1.1860657 0.29849243 -1.592926 -0.073028564 -1.7601624 -1.5624084c-0.10244751 -0.7027283 -0.081451416 -1.4130249 0.05102539 -2.1004639c0.57876587 -2.7894897 1.2211304 -5.5440674 1.8855896 -8.304199c0.15197754 -0.5944214 0.41271973 -1.1614075 0.7666321 -1.6539001c0.47250366 -0.6437683 1.0131836 -1.2655334 1.7609253 -1.4537048z" fill-rule="evenodd"/><path fill="#626262" d="m435.08585 322.7297c0.29467773 -0.074157715 0.589447 -0.08569336 0.85025024 -0.029907227c1.5593567 0.39089966 2.3239136 1.5301819 2.0763855 3.4568787c-0.3791504 2.5864868 -0.8310547 5.195221 -1.3659363 7.7699585c-0.34100342 1.6486206 -1.1855164 2.9931335 -2.9312744 3.5578308c-0.11968994 0.037963867 -0.2366333 0.07128906 -0.34713745 0.099121094c-1.2008057 0.30221558 -1.7624512 -0.07739258 -2.1063843 -1.4439392c-0.2906189 -0.8590698 -0.04425049 -1.7788391 0.08517456 -2.6652527c0.45251465 -2.8086243 0.8478699 -5.6263733 1.4902344 -8.380951c0.271698 -1.2238159 1.287323 -2.1217957 2.2486877 -2.363739z" fill-rule="evenodd"/><path fill="#626262" d="m428.26477 351.20187c0.272583 -0.068573 0.56918335 -0.088409424 0.8824463 -0.05758667c1.1665039 0.13726807 2.4953308 0.40603638 2.5630493 1.8734436c0.32589722 1.6061096 -0.92993164 7.914856 -1.9001465 9.569061c-0.2425232 0.43704224 -0.48861694 0.9533081 -0.874176 1.2266235c-0.54660034 0.3804016 -1.1401367 0.7922058 -1.7626648 0.94888306c-0.40518188 0.10195923 -0.8179016 0.09616089 -1.2419739 -0.0947876c-1.0748596 -0.4580078 -1.0977783 -1.560669 -0.9345398 -2.608368c0.07476807 -0.49667358 -0.031097412 -1.0262146 0.021575928 -1.5173035c0.2512207 -2.5033875 0.7337036 -4.9905396 1.4337158 -7.4071045c0.2748413 -0.97787476 0.9213257 -1.7084961 1.8127136 -1.9328613z" fill-rule="evenodd"/><path fill="#626262" d="m424.08096 300.01288c0.696167 -0.17520142 1.3616943 0.07247925 1.9796753 0.55148315c0.66412354 0.5378723 1.2501221 1.1698303 0.84246826 2.0557861c-1.3092651 2.797058 -1.2158203 5.969635 -2.395172 8.784943c-0.5194702 1.23526 -1.0777283 2.40979 -2.2926636 3.0915833c-0.3019104 0.16998291 -0.5661316 0.28738403 -0.80184937 0.3467102c-0.725647 0.1826477 -1.1601257 -0.18978882 -1.4806519 -1.3076477c-0.011444092 -0.24780273 -0.059051514 -0.6392517 -0.058746338 -1.0427551c-0.052825928 -3.7115479 1.1116638 -7.1772156 2.2798462 -10.643799c0.25317383 -0.69039917 0.72213745 -1.2392883 1.3599854 -1.5995483c0.19143677 -0.11087036 0.37924194 -0.18945312 0.56710815 -0.23675537z" fill-rule="evenodd"/><path fill="#626262" d="m348.5972 353.28592c0.87667847 -0.22061157 1.6684875 0.077545166 2.4164429 0.6060486c0.8374634 0.6195984 0.8444519 1.5500488 0.4423828 2.4580688c-0.6994629 1.6095886 -0.851532 3.3085632 -0.867218 5.0515747c-0.023590088 0.8088684 -0.19830322 1.6087646 -0.51864624 2.3435059c-0.24765015 0.6968384 -1.5601196 1.4580078 -2.6430664 1.7305603c-0.33517456 0.084350586 -0.6474304 0.11984253 -0.9008179 0.09353638c-1.3212585 -0.1453247 -1.0540771 -1.2936096 -1.406311 -2.0862122c-0.70578 -2.4152832 -0.20379639 -4.8094482 0.58026123 -7.0944214c0.35647583 -1.1981506 1.1407471 -2.1749573 2.1889954 -2.8187256c0.24118042 -0.13119507 0.47961426 -0.22644043 0.7079773 -0.28393555z" fill-rule="evenodd"/><path fill="#626262" d="m407.55194 295.14075c0.9024353 -0.22711182 1.5636902 0.8128357 2.4131775 0.8888855c0.92874146 0.09524536 0.6300049 1.1026306 0.49472046 1.7633667c-0.55911255 2.3850098 -1.2012024 4.736084 -1.6534119 7.1412354c-0.35263062 1.8982849 -1.9317017 2.4249573 -3.252472 3.1842651c-0.113220215 0.06375122 -0.22644043 0.111846924 -0.3406372 0.14056396c-0.65563965 0.16503906 -1.2827759 -0.27249146 -1.519043 -1.1334839c-0.025512695 -0.39700317 -0.0730896 -0.78845215 -0.049804688 -1.1938171c0.10864258 -2.9766846 0.87335205 -5.8364563 1.7293701 -8.644806c0.26489258 -0.84609985 0.9385681 -1.2663269 1.5595703 -1.8025513c0.21896362 -0.18826294 0.42330933 -0.29452515 0.6185303 -0.34365845z" fill-rule="evenodd"/><path fill="#626262" d="m373.86707 293.36426c0.44570923 -0.11218262 0.9460144 -0.06967163 1.4917908 0.20031738c1.2649536 0.6373291 1.7902222 1.9151611 1.2111206 3.3182068c-0.83688354 2.0750122 -1.4562683 4.2206116 -1.8609314 6.410095c-0.30410767 1.6863403 -1.3210144 2.3457031 -2.8007812 2.7690125c-0.06906128 0.02130127 -0.13534546 0.037994385 -0.19796753 0.053741455c-1.0866394 0.27349854 -1.8064575 0.043395996 -1.9559937 -1.297699c-0.31326294 -3.5480652 0.55166626 -7.1145935 2.4907532 -10.1171875c0.38867188 -0.63442993 0.9405823 -1.1650085 1.6220093 -1.3364868z" fill-rule="evenodd"/><path fill="#626262" d="m404.28693 321.9307c0.38305664 -0.09640503 0.8226013 -0.030792236 1.3205872 0.2982483c1.4155273 0.92453 1.7064819 1.9871521 1.1117859 3.4215393c-0.7616577 1.875885 -1.6744385 3.7428284 -2.236206 5.6193542c-0.5185852 1.7833862 -1.5718689 2.7495728 -2.713745 3.0369568c-0.07736206 0.019470215 -0.15563965 0.035247803 -0.23486328 0.04736328c-0.14453125 0.04812622 -0.27990723 0.08609009 -0.4125061 0.11947632c-1.7864685 0.44961548 -2.4565125 -0.32962036 -2.1664734 -2.1651611c0.5696106 -3.339447 1.9752502 -6.3605347 3.8934937 -9.134613c0.36669922 -0.5505676 0.8375244 -1.0920715 1.4379272 -1.2431641z" fill-rule="evenodd"/><path fill="#626262" d="m350.5218 305.42032c0.43466187 -0.109375 0.8657837 -0.10821533 1.2391052 0.021087646c1.297821 0.45672607 1.8930664 1.7169495 1.6231079 3.4456177c-0.25375366 1.497406 -0.48077393 2.9920044 -0.7621765 4.4728394c-0.15319824 0.9942627 -0.5183716 1.940033 -1.0845032 2.7875366c-0.46514893 0.64190674 -1.0523376 0.98553467 -1.7006226 1.1486816c-0.47885132 0.120513916 -0.9901123 0.14343262 -1.506958 0.11291504c-0.87249756 -0.058502197 -1.0267029 -0.87353516 -1.2649536 -1.8201904c-0.33041382 -2.71344 0.20861816 -5.567322 1.2821655 -8.305084c0.40011597 -0.96240234 1.290802 -1.6408997 2.1748352 -1.8634033z" fill-rule="evenodd"/><path fill="#626262" d="m392.63672 307.69943c0.696167 -0.17520142 1.5252686 0.41122437 2.2375183 0.48657227c0.8329773 0.119384766 1.1549377 0.9940491 0.86068726 1.9258728c-0.70788574 2.0895386 -1.3835144 4.1983643 -2.0628357 6.308136c-0.38504028 1.177948 -1.2703857 1.7532654 -2.402069 2.0655212c-0.14364624 0.051818848 -0.28637695 0.09164429 -0.42263794 0.12594604c-1.256073 0.31610107 -2.0259705 -0.11288452 -1.9743652 -1.2617493c0.13024902 -3.2797852 1.363678 -6.2849426 3.0350342 -9.043884c0.21499634 -0.35961914 0.45977783 -0.5387268 0.7286682 -0.6064148z" fill-rule="evenodd"/><path fill="#626262" d="m413.81094 359.571c0.7182617 -0.18078613 1.5837708 0.11450195 2.563263 0.83151245c0.7617798 0.5368042 0.74139404 1.0472107 0.54537964 1.7780457c-0.41781616 1.4368591 -0.9083557 2.895935 -1.1160889 4.358246c-0.2878723 2.0621948 -1.8925781 2.6893005 -3.3588867 3.4617615c-0.14083862 0.07852173 -0.27615356 0.13217163 -0.4013977 0.16369629c-0.6925049 0.17428589 -1.1262817 -0.33538818 -1.3283691 -1.1383972c-0.6151123 -2.739685 0.6376343 -5.170044 1.4841003 -7.596039c0.38153076 -1.0830688 0.930542 -1.6873169 1.6119995 -1.8588257z" fill-rule="evenodd"/><path fill="#626262" d="m386.87177 341.11514l0.3678894 0.18548584l0 0c-0.06817627 0.009338379 -0.15383911 0.011291504 -0.2441101 0.010528564c-0.059936523 -0.035827637 -0.08312988 -0.12792969 -0.1237793 -0.1960144zm0.3678894 0.18548584c0.011047363 -0.0027770996 0.0184021 -0.004638672 0.029449463 -0.0074157715l0.006500244 0.025787354l-0.035949707 -0.018371582z" fill-rule="evenodd"/><path fill="#101c20" d="m265.1374 159.19456c-5.2183228 0 -9.80983 -4.1763 -9.80983 -8.898041c0.10583496 -4.526367 3.7692719 -8.116531 8.271194 -8.116531c0.032562256 0 0.06512451 0 0.097717285 0c4.7135925 0.16282654 9.524902 5.185791 9.476044 9.891251c-0.10583496 4.0786133 -3.2970886 7.0093536 -7.742035 7.1151886c-0.09768677 0.008132935 -0.19537354 0.008132935 -0.29309082 0.008132935z" fill-rule="evenodd"/><path fill="#101c20" d="m247.01573 117.78967c-0.5047302 0 -1.0501709 -0.032562256 -1.6281891 -0.09768677c-1.2536926 -0.15467834 -3.8750916 0 -6.2848053 -1.2048569c-3.60643 -1.8317184 -5.226486 -5.1287994 -4.0786133 -8.474724c1.0501862 -3.0691376 3.9564972 -5.0229645 7.066345 -5.0229645c0.76524353 0 1.5386353 0.12210846 2.3038788 0.36634064c2.9307404 0.8873596 5.438156 2.776062 7.164032 5.3404617c1.2618561 1.8317108 2.1492157 3.8181 0.9931946 6.0650024c-1.0257568 2.0026703 -2.653946 3.0284271 -5.535843 3.0284271z" fill-rule="evenodd"/><path fill="#101c20" d="m285.78278 128.26709c-4.444977 0 -8.108398 -3.4599075 -8.05954 -7.587364c0.15466309 -3.8262482 3.1912537 -6.911667 7.0093384 -7.1721725c0.0814209 0 0.16281128 -0.008140564 0.25238037 -0.008140564c4.2495728 0 8.279327 3.9646378 8.173492 8.173508c-0.10583496 3.7122726 -3.297058 6.5941696 -7.3756714 6.5941696z" fill-rule="evenodd"/><path fill="#101c20" d="m302.44724 154.85544c-0.78967285 0 -1.6200562 -0.15467834 -2.4830017 -0.43145752c-2.0433655 -0.73269653 -3.9239197 -1.8805695 -5.495117 -3.345932c-1.7828674 -1.6200562 -3.3540955 -3.557602 -2.198059 -6.2766724c1.2129822 -2.7434998 3.2644958 -4.298416 5.2997437 -4.298416c0.06512451 0 0.13024902 0 0.19537354 0.008132935c4.656616 0.20352173 7.269867 1.8805695 9.256256 4.705475c1.6770325 2.4097137 1.6770325 4.762451 -0.09768677 7.2210083c-1.2292786 1.6933289 -2.7434998 2.417862 -4.4775085 2.417862z" fill-rule="evenodd"/><path fill="#101c20" d="m263.5825 138.67937c-0.8140869 0 -1.6607361 -0.10583496 -2.4992676 -0.26864624c-1.7258911 -0.3093567 -3.3459167 -0.93621826 -4.8112793 -1.8805695c-2.4585876 -1.5711975 -4.24144 -3.712265 -3.2482452 -7.0093536c0.8873596 -2.9307327 3.451767 -4.7136 6.911667 -4.7624435c0.12210083 -0.008148193 0.25234985 -0.008148193 0.38259888 -0.008148193c2.2713318 0 4.469391 0.8792267 6.105713 2.466713c2.5074158 2.198059 3.5006104 6.382492 2.0922241 8.792221c-1.2129822 2.0596619 -2.9958496 2.670227 -4.9334106 2.670227z" fill-rule="evenodd"/><path fill="#101c20" d="m226.28896 131.82468c-3.557602 -0.31748962 -6.4883423 -1.9945221 -8.214218 -5.340454c-1.3106842 -2.5643997 -0.7326813 -5.7556458 1.4653778 -7.6931915c1.164154 -0.9036484 2.3852844 -1.326973 3.590149 -1.326973c1.2292786 0 2.4422913 0.43146515 3.573883 1.221138c1.5711975 1.0990295 2.7190704 2.776062 4.086746 4.135605c1.6688995 1.6770325 2.4585724 3.6634216 1.4572296 5.8614807c-1.0990295 2.564392 -3.3947754 3.0854187 -5.9591675 3.142395z" fill-rule="evenodd"/><path fill="#101c20" d="m271.84552 109.55103c-3.6308594 0 -7.253601 -3.6797104 -7.147766 -7.4001236c0.048858643 -2.9307404 2.2957458 -5.3323135 5.2265015 -5.5439835c0.06512451 -0.008140564 0.13024902 -0.008140564 0.18722534 -0.008140564c3.1424255 0 6.6185913 3.8425293 6.66745 7.4408264c0.05697632 2.8249054 -1.9863892 5.28347 -4.493805 5.4869995c-0.14654541 0.016281128 -0.29309082 0.024421692 -0.4396057 0.024421692z" fill-rule="evenodd"/><path fill="#101c20" d="m306.0292 109.32308c-2.930725 -0.056983948 -7.269867 -4.086754 -7.1151733 -6.594162c0.15466309 -2.328308 2.6539612 -4.241432 5.5358276 -4.241432c0.04071045 0 0.0814209 0 0.113983154 0c3.4029236 0.056983948 6.1789856 2.8818893 6.0731506 6.2848053c-0.10583496 2.5074158 -2.0922241 4.493805 -4.607788 4.550789z" fill-rule="evenodd"/></g></svg>